<svg xmlns="http://www.w3.org/2000/svg" version="1.1" xmlns:xlink="http://www.w3.org/1999/xlink" xmlns:svgjs="http://svgjs.dev/svgjs" width="1440" height="560" preserveAspectRatio="none" viewBox="0 0 1440 560"><g mask="url(&quot;#SvgjsMask1019&quot;)" fill="none"><path d="M 0,261 C 57.6,236.6 172.8,150.4 288,139 C 403.2,127.6 460.8,217 576,204 C 691.2,191 748.8,75.6 864,74 C 979.2,72.4 1036.8,196.8 1152,196 C 1267.2,195.2 1382.4,95.2 1440,70L1440 560L0 560z" fill="rgba(255, 255, 255, 1)"></path><path d="M 0,518 C 48,494 144,409.4 240,398 C 336,386.6 384,480.4 480,461 C 576,441.6 624,300 720,301 C 816,302 864,466.6 960,466 C 1056,465.4 1104,306 1200,298 C 1296,290 1392,400.4 1440,426L1440 560L0 560z" fill="rgba(255, 255, 255, 0.62)"></path></g><defs><mask id="SvgjsMask1019"><rect width="1440" height="560" fill="#ffffff"></rect></mask></defs></svg>