<svg xmlns="http://www.w3.org/2000/svg" version="1.1" xmlns:xlink="http://www.w3.org/1999/xlink" xmlns:svgjs="http://svgjs.dev/svgjs" viewBox="0 0 800 800" opacity="0.72"><g stroke-width="5" stroke="#f60954" fill="none" stroke-linecap="round" transform="matrix(1,0,0,1,-5,-1423.9477462768555)"><path d="M10,10C24.583333333333332,11.041666666666666,48.75,20.625,80,15C111.25,9.375,126.66666666666666,-20.75,160,-17C193.33333333333334,-13.25,206.66666666666666,30.708333333333332,240,33C273.3333333333333,35.291666666666664,286.6666666666667,-7.041666666666667,320,-6C353.3333333333333,-4.958333333333333,366.6666666666667,37.375,400,38C433.3333333333333,38.625,446.6666666666667,-2.166666666666667,480,-3C513.3333333333334,-3.833333333333333,526.6666666666666,35.666666666666664,560,34C593.3333333333334,32.333333333333336,606.6666666666666,-14.958333333333332,640,-11C673.3333333333334,-7.041666666666667,686.6666666666666,49.458333333333336,720,53C753.3333333333334,56.541666666666664,783.3333333333334,15.791666666666666,800,6"></path><path d="M10,10C24.583333333333332,11.041666666666666,48.75,20.625,80,15C111.25,9.375,126.66666666666666,-20.75,160,-17C193.33333333333334,-13.25,206.66666666666666,30.708333333333332,240,33C273.3333333333333,35.291666666666664,286.6666666666667,-7.041666666666667,320,-6C353.3333333333333,-4.958333333333333,366.6666666666667,37.375,400,38C433.3333333333333,38.625,446.6666666666667,-2.166666666666667,480,-3C513.3333333333334,-3.833333333333333,526.6666666666666,35.666666666666664,560,34C593.3333333333334,32.333333333333336,606.6666666666666,-14.958333333333332,640,-11C673.3333333333334,-7.041666666666667,686.6666666666666,49.458333333333336,720,53C753.3333333333334,56.541666666666664,783.3333333333334,15.791666666666666,800,6" transform="matrix(1,0,0,1,0,3612)"></path><path d="M10,10C24.583333333333332,11.041666666666666,48.75,20.625,80,15C111.25,9.375,126.66666666666666,-20.75,160,-17C193.33333333333334,-13.25,206.66666666666666,30.708333333333332,240,33C273.3333333333333,35.291666666666664,286.6666666666667,-7.041666666666667,320,-6C353.3333333333333,-4.958333333333333,366.6666666666667,37.375,400,38C433.3333333333333,38.625,446.6666666666667,-2.166666666666667,480,-3C513.3333333333334,-3.833333333333333,526.6666666666666,35.666666666666664,560,34C593.3333333333334,32.333333333333336,606.6666666666666,-14.958333333333332,640,-11C673.3333333333334,-7.041666666666667,686.6666666666666,49.458333333333336,720,53C753.3333333333334,56.541666666666664,783.3333333333334,15.791666666666666,800,6" transform="matrix(1,0,0,1,0,3526)"></path><path d="M10,10C24.583333333333332,11.041666666666666,48.75,20.625,80,15C111.25,9.375,126.66666666666666,-20.75,160,-17C193.33333333333334,-13.25,206.66666666666666,30.708333333333332,240,33C273.3333333333333,35.291666666666664,286.6666666666667,-7.041666666666667,320,-6C353.3333333333333,-4.958333333333333,366.6666666666667,37.375,400,38C433.3333333333333,38.625,446.6666666666667,-2.166666666666667,480,-3C513.3333333333334,-3.833333333333333,526.6666666666666,35.666666666666664,560,34C593.3333333333334,32.333333333333336,606.6666666666666,-14.958333333333332,640,-11C673.3333333333334,-7.041666666666667,686.6666666666666,49.458333333333336,720,53C753.3333333333334,56.541666666666664,783.3333333333334,15.791666666666666,800,6" transform="matrix(1,0,0,1,0,3440)"></path><path d="M10,10C24.583333333333332,11.041666666666666,48.75,20.625,80,15C111.25,9.375,126.66666666666666,-20.75,160,-17C193.33333333333334,-13.25,206.66666666666666,30.708333333333332,240,33C273.3333333333333,35.291666666666664,286.6666666666667,-7.041666666666667,320,-6C353.3333333333333,-4.958333333333333,366.6666666666667,37.375,400,38C433.3333333333333,38.625,446.6666666666667,-2.166666666666667,480,-3C513.3333333333334,-3.833333333333333,526.6666666666666,35.666666666666664,560,34C593.3333333333334,32.333333333333336,606.6666666666666,-14.958333333333332,640,-11C673.3333333333334,-7.041666666666667,686.6666666666666,49.458333333333336,720,53C753.3333333333334,56.541666666666664,783.3333333333334,15.791666666666666,800,6" transform="matrix(1,0,0,1,0,3354)"></path><path d="M10,10C24.583333333333332,11.041666666666666,48.75,20.625,80,15C111.25,9.375,126.66666666666666,-20.75,160,-17C193.33333333333334,-13.25,206.66666666666666,30.708333333333332,240,33C273.3333333333333,35.291666666666664,286.6666666666667,-7.041666666666667,320,-6C353.3333333333333,-4.958333333333333,366.6666666666667,37.375,400,38C433.3333333333333,38.625,446.6666666666667,-2.166666666666667,480,-3C513.3333333333334,-3.833333333333333,526.6666666666666,35.666666666666664,560,34C593.3333333333334,32.333333333333336,606.6666666666666,-14.958333333333332,640,-11C673.3333333333334,-7.041666666666667,686.6666666666666,49.458333333333336,720,53C753.3333333333334,56.541666666666664,783.3333333333334,15.791666666666666,800,6" transform="matrix(1,0,0,1,0,3268)"></path><path d="M10,10C24.583333333333332,11.041666666666666,48.75,20.625,80,15C111.25,9.375,126.66666666666666,-20.75,160,-17C193.33333333333334,-13.25,206.66666666666666,30.708333333333332,240,33C273.3333333333333,35.291666666666664,286.6666666666667,-7.041666666666667,320,-6C353.3333333333333,-4.958333333333333,366.6666666666667,37.375,400,38C433.3333333333333,38.625,446.6666666666667,-2.166666666666667,480,-3C513.3333333333334,-3.833333333333333,526.6666666666666,35.666666666666664,560,34C593.3333333333334,32.333333333333336,606.6666666666666,-14.958333333333332,640,-11C673.3333333333334,-7.041666666666667,686.6666666666666,49.458333333333336,720,53C753.3333333333334,56.541666666666664,783.3333333333334,15.791666666666666,800,6" transform="matrix(1,0,0,1,0,3182)"></path><path d="M10,10C24.583333333333332,11.041666666666666,48.75,20.625,80,15C111.25,9.375,126.66666666666666,-20.75,160,-17C193.33333333333334,-13.25,206.66666666666666,30.708333333333332,240,33C273.3333333333333,35.291666666666664,286.6666666666667,-7.041666666666667,320,-6C353.3333333333333,-4.958333333333333,366.6666666666667,37.375,400,38C433.3333333333333,38.625,446.6666666666667,-2.166666666666667,480,-3C513.3333333333334,-3.833333333333333,526.6666666666666,35.666666666666664,560,34C593.3333333333334,32.333333333333336,606.6666666666666,-14.958333333333332,640,-11C673.3333333333334,-7.041666666666667,686.6666666666666,49.458333333333336,720,53C753.3333333333334,56.541666666666664,783.3333333333334,15.791666666666666,800,6" transform="matrix(1,0,0,1,0,3096)"></path><path d="M10,10C24.583333333333332,11.041666666666666,48.75,20.625,80,15C111.25,9.375,126.66666666666666,-20.75,160,-17C193.33333333333334,-13.25,206.66666666666666,30.708333333333332,240,33C273.3333333333333,35.291666666666664,286.6666666666667,-7.041666666666667,320,-6C353.3333333333333,-4.958333333333333,366.6666666666667,37.375,400,38C433.3333333333333,38.625,446.6666666666667,-2.166666666666667,480,-3C513.3333333333334,-3.833333333333333,526.6666666666666,35.666666666666664,560,34C593.3333333333334,32.333333333333336,606.6666666666666,-14.958333333333332,640,-11C673.3333333333334,-7.041666666666667,686.6666666666666,49.458333333333336,720,53C753.3333333333334,56.541666666666664,783.3333333333334,15.791666666666666,800,6" transform="matrix(1,0,0,1,0,3010)"></path><path d="M10,10C24.583333333333332,11.041666666666666,48.75,20.625,80,15C111.25,9.375,126.66666666666666,-20.75,160,-17C193.33333333333334,-13.25,206.66666666666666,30.708333333333332,240,33C273.3333333333333,35.291666666666664,286.6666666666667,-7.041666666666667,320,-6C353.3333333333333,-4.958333333333333,366.6666666666667,37.375,400,38C433.3333333333333,38.625,446.6666666666667,-2.166666666666667,480,-3C513.3333333333334,-3.833333333333333,526.6666666666666,35.666666666666664,560,34C593.3333333333334,32.333333333333336,606.6666666666666,-14.958333333333332,640,-11C673.3333333333334,-7.041666666666667,686.6666666666666,49.458333333333336,720,53C753.3333333333334,56.541666666666664,783.3333333333334,15.791666666666666,800,6" transform="matrix(1,0,0,1,0,2924)"></path><path d="M10,10C24.583333333333332,11.041666666666666,48.75,20.625,80,15C111.25,9.375,126.66666666666666,-20.75,160,-17C193.33333333333334,-13.25,206.66666666666666,30.708333333333332,240,33C273.3333333333333,35.291666666666664,286.6666666666667,-7.041666666666667,320,-6C353.3333333333333,-4.958333333333333,366.6666666666667,37.375,400,38C433.3333333333333,38.625,446.6666666666667,-2.166666666666667,480,-3C513.3333333333334,-3.833333333333333,526.6666666666666,35.666666666666664,560,34C593.3333333333334,32.333333333333336,606.6666666666666,-14.958333333333332,640,-11C673.3333333333334,-7.041666666666667,686.6666666666666,49.458333333333336,720,53C753.3333333333334,56.541666666666664,783.3333333333334,15.791666666666666,800,6" transform="matrix(1,0,0,1,0,2838)"></path><path d="M10,10C24.583333333333332,11.041666666666666,48.75,20.625,80,15C111.25,9.375,126.66666666666666,-20.75,160,-17C193.33333333333334,-13.25,206.66666666666666,30.708333333333332,240,33C273.3333333333333,35.291666666666664,286.6666666666667,-7.041666666666667,320,-6C353.3333333333333,-4.958333333333333,366.6666666666667,37.375,400,38C433.3333333333333,38.625,446.6666666666667,-2.166666666666667,480,-3C513.3333333333334,-3.833333333333333,526.6666666666666,35.666666666666664,560,34C593.3333333333334,32.333333333333336,606.6666666666666,-14.958333333333332,640,-11C673.3333333333334,-7.041666666666667,686.6666666666666,49.458333333333336,720,53C753.3333333333334,56.541666666666664,783.3333333333334,15.791666666666666,800,6" transform="matrix(1,0,0,1,0,2752)"></path><path d="M10,10C24.583333333333332,11.041666666666666,48.75,20.625,80,15C111.25,9.375,126.66666666666666,-20.75,160,-17C193.33333333333334,-13.25,206.66666666666666,30.708333333333332,240,33C273.3333333333333,35.291666666666664,286.6666666666667,-7.041666666666667,320,-6C353.3333333333333,-4.958333333333333,366.6666666666667,37.375,400,38C433.3333333333333,38.625,446.6666666666667,-2.166666666666667,480,-3C513.3333333333334,-3.833333333333333,526.6666666666666,35.666666666666664,560,34C593.3333333333334,32.333333333333336,606.6666666666666,-14.958333333333332,640,-11C673.3333333333334,-7.041666666666667,686.6666666666666,49.458333333333336,720,53C753.3333333333334,56.541666666666664,783.3333333333334,15.791666666666666,800,6" transform="matrix(1,0,0,1,0,2666)"></path><path d="M10,10C24.583333333333332,11.041666666666666,48.75,20.625,80,15C111.25,9.375,126.66666666666666,-20.75,160,-17C193.33333333333334,-13.25,206.66666666666666,30.708333333333332,240,33C273.3333333333333,35.291666666666664,286.6666666666667,-7.041666666666667,320,-6C353.3333333333333,-4.958333333333333,366.6666666666667,37.375,400,38C433.3333333333333,38.625,446.6666666666667,-2.166666666666667,480,-3C513.3333333333334,-3.833333333333333,526.6666666666666,35.666666666666664,560,34C593.3333333333334,32.333333333333336,606.6666666666666,-14.958333333333332,640,-11C673.3333333333334,-7.041666666666667,686.6666666666666,49.458333333333336,720,53C753.3333333333334,56.541666666666664,783.3333333333334,15.791666666666666,800,6" transform="matrix(1,0,0,1,0,2580)"></path><path d="M10,10C24.583333333333332,11.041666666666666,48.75,20.625,80,15C111.25,9.375,126.66666666666666,-20.75,160,-17C193.33333333333334,-13.25,206.66666666666666,30.708333333333332,240,33C273.3333333333333,35.291666666666664,286.6666666666667,-7.041666666666667,320,-6C353.3333333333333,-4.958333333333333,366.6666666666667,37.375,400,38C433.3333333333333,38.625,446.6666666666667,-2.166666666666667,480,-3C513.3333333333334,-3.833333333333333,526.6666666666666,35.666666666666664,560,34C593.3333333333334,32.333333333333336,606.6666666666666,-14.958333333333332,640,-11C673.3333333333334,-7.041666666666667,686.6666666666666,49.458333333333336,720,53C753.3333333333334,56.541666666666664,783.3333333333334,15.791666666666666,800,6" transform="matrix(1,0,0,1,0,2494)"></path><path d="M10,10C24.583333333333332,11.041666666666666,48.75,20.625,80,15C111.25,9.375,126.66666666666666,-20.75,160,-17C193.33333333333334,-13.25,206.66666666666666,30.708333333333332,240,33C273.3333333333333,35.291666666666664,286.6666666666667,-7.041666666666667,320,-6C353.3333333333333,-4.958333333333333,366.6666666666667,37.375,400,38C433.3333333333333,38.625,446.6666666666667,-2.166666666666667,480,-3C513.3333333333334,-3.833333333333333,526.6666666666666,35.666666666666664,560,34C593.3333333333334,32.333333333333336,606.6666666666666,-14.958333333333332,640,-11C673.3333333333334,-7.041666666666667,686.6666666666666,49.458333333333336,720,53C753.3333333333334,56.541666666666664,783.3333333333334,15.791666666666666,800,6" transform="matrix(1,0,0,1,0,2408)"></path><path d="M10,10C24.583333333333332,11.041666666666666,48.75,20.625,80,15C111.25,9.375,126.66666666666666,-20.75,160,-17C193.33333333333334,-13.25,206.66666666666666,30.708333333333332,240,33C273.3333333333333,35.291666666666664,286.6666666666667,-7.041666666666667,320,-6C353.3333333333333,-4.958333333333333,366.6666666666667,37.375,400,38C433.3333333333333,38.625,446.6666666666667,-2.166666666666667,480,-3C513.3333333333334,-3.833333333333333,526.6666666666666,35.666666666666664,560,34C593.3333333333334,32.333333333333336,606.6666666666666,-14.958333333333332,640,-11C673.3333333333334,-7.041666666666667,686.6666666666666,49.458333333333336,720,53C753.3333333333334,56.541666666666664,783.3333333333334,15.791666666666666,800,6" transform="matrix(1,0,0,1,0,2322)"></path><path d="M10,10C24.583333333333332,11.041666666666666,48.75,20.625,80,15C111.25,9.375,126.66666666666666,-20.75,160,-17C193.33333333333334,-13.25,206.66666666666666,30.708333333333332,240,33C273.3333333333333,35.291666666666664,286.6666666666667,-7.041666666666667,320,-6C353.3333333333333,-4.958333333333333,366.6666666666667,37.375,400,38C433.3333333333333,38.625,446.6666666666667,-2.166666666666667,480,-3C513.3333333333334,-3.833333333333333,526.6666666666666,35.666666666666664,560,34C593.3333333333334,32.333333333333336,606.6666666666666,-14.958333333333332,640,-11C673.3333333333334,-7.041666666666667,686.6666666666666,49.458333333333336,720,53C753.3333333333334,56.541666666666664,783.3333333333334,15.791666666666666,800,6" transform="matrix(1,0,0,1,0,2236)"></path><path d="M10,10C24.583333333333332,11.041666666666666,48.75,20.625,80,15C111.25,9.375,126.66666666666666,-20.75,160,-17C193.33333333333334,-13.25,206.66666666666666,30.708333333333332,240,33C273.3333333333333,35.291666666666664,286.6666666666667,-7.041666666666667,320,-6C353.3333333333333,-4.958333333333333,366.6666666666667,37.375,400,38C433.3333333333333,38.625,446.6666666666667,-2.166666666666667,480,-3C513.3333333333334,-3.833333333333333,526.6666666666666,35.666666666666664,560,34C593.3333333333334,32.333333333333336,606.6666666666666,-14.958333333333332,640,-11C673.3333333333334,-7.041666666666667,686.6666666666666,49.458333333333336,720,53C753.3333333333334,56.541666666666664,783.3333333333334,15.791666666666666,800,6" transform="matrix(1,0,0,1,0,2150)"></path><path d="M10,10C24.583333333333332,11.041666666666666,48.75,20.625,80,15C111.25,9.375,126.66666666666666,-20.75,160,-17C193.33333333333334,-13.25,206.66666666666666,30.708333333333332,240,33C273.3333333333333,35.291666666666664,286.6666666666667,-7.041666666666667,320,-6C353.3333333333333,-4.958333333333333,366.6666666666667,37.375,400,38C433.3333333333333,38.625,446.6666666666667,-2.166666666666667,480,-3C513.3333333333334,-3.833333333333333,526.6666666666666,35.666666666666664,560,34C593.3333333333334,32.333333333333336,606.6666666666666,-14.958333333333332,640,-11C673.3333333333334,-7.041666666666667,686.6666666666666,49.458333333333336,720,53C753.3333333333334,56.541666666666664,783.3333333333334,15.791666666666666,800,6" transform="matrix(1,0,0,1,0,2064)"></path><path d="M10,10C24.583333333333332,11.041666666666666,48.75,20.625,80,15C111.25,9.375,126.66666666666666,-20.75,160,-17C193.33333333333334,-13.25,206.66666666666666,30.708333333333332,240,33C273.3333333333333,35.291666666666664,286.6666666666667,-7.041666666666667,320,-6C353.3333333333333,-4.958333333333333,366.6666666666667,37.375,400,38C433.3333333333333,38.625,446.6666666666667,-2.166666666666667,480,-3C513.3333333333334,-3.833333333333333,526.6666666666666,35.666666666666664,560,34C593.3333333333334,32.333333333333336,606.6666666666666,-14.958333333333332,640,-11C673.3333333333334,-7.041666666666667,686.6666666666666,49.458333333333336,720,53C753.3333333333334,56.541666666666664,783.3333333333334,15.791666666666666,800,6" transform="matrix(1,0,0,1,0,1978)"></path><path d="M10,10C24.583333333333332,11.041666666666666,48.75,20.625,80,15C111.25,9.375,126.66666666666666,-20.75,160,-17C193.33333333333334,-13.25,206.66666666666666,30.708333333333332,240,33C273.3333333333333,35.291666666666664,286.6666666666667,-7.041666666666667,320,-6C353.3333333333333,-4.958333333333333,366.6666666666667,37.375,400,38C433.3333333333333,38.625,446.6666666666667,-2.166666666666667,480,-3C513.3333333333334,-3.833333333333333,526.6666666666666,35.666666666666664,560,34C593.3333333333334,32.333333333333336,606.6666666666666,-14.958333333333332,640,-11C673.3333333333334,-7.041666666666667,686.6666666666666,49.458333333333336,720,53C753.3333333333334,56.541666666666664,783.3333333333334,15.791666666666666,800,6" transform="matrix(1,0,0,1,0,1892)"></path><path d="M10,10C24.583333333333332,11.041666666666666,48.75,20.625,80,15C111.25,9.375,126.66666666666666,-20.75,160,-17C193.33333333333334,-13.25,206.66666666666666,30.708333333333332,240,33C273.3333333333333,35.291666666666664,286.6666666666667,-7.041666666666667,320,-6C353.3333333333333,-4.958333333333333,366.6666666666667,37.375,400,38C433.3333333333333,38.625,446.6666666666667,-2.166666666666667,480,-3C513.3333333333334,-3.833333333333333,526.6666666666666,35.666666666666664,560,34C593.3333333333334,32.333333333333336,606.6666666666666,-14.958333333333332,640,-11C673.3333333333334,-7.041666666666667,686.6666666666666,49.458333333333336,720,53C753.3333333333334,56.541666666666664,783.3333333333334,15.791666666666666,800,6" transform="matrix(1,0,0,1,0,1806)"></path><path d="M10,10C24.583333333333332,11.041666666666666,48.75,20.625,80,15C111.25,9.375,126.66666666666666,-20.75,160,-17C193.33333333333334,-13.25,206.66666666666666,30.708333333333332,240,33C273.3333333333333,35.291666666666664,286.6666666666667,-7.041666666666667,320,-6C353.3333333333333,-4.958333333333333,366.6666666666667,37.375,400,38C433.3333333333333,38.625,446.6666666666667,-2.166666666666667,480,-3C513.3333333333334,-3.833333333333333,526.6666666666666,35.666666666666664,560,34C593.3333333333334,32.333333333333336,606.6666666666666,-14.958333333333332,640,-11C673.3333333333334,-7.041666666666667,686.6666666666666,49.458333333333336,720,53C753.3333333333334,56.541666666666664,783.3333333333334,15.791666666666666,800,6" transform="matrix(1,0,0,1,0,1720)"></path><path d="M10,10C24.583333333333332,11.041666666666666,48.75,20.625,80,15C111.25,9.375,126.66666666666666,-20.75,160,-17C193.33333333333334,-13.25,206.66666666666666,30.708333333333332,240,33C273.3333333333333,35.291666666666664,286.6666666666667,-7.041666666666667,320,-6C353.3333333333333,-4.958333333333333,366.6666666666667,37.375,400,38C433.3333333333333,38.625,446.6666666666667,-2.166666666666667,480,-3C513.3333333333334,-3.833333333333333,526.6666666666666,35.666666666666664,560,34C593.3333333333334,32.333333333333336,606.6666666666666,-14.958333333333332,640,-11C673.3333333333334,-7.041666666666667,686.6666666666666,49.458333333333336,720,53C753.3333333333334,56.541666666666664,783.3333333333334,15.791666666666666,800,6" transform="matrix(1,0,0,1,0,1634)"></path><path d="M10,10C24.583333333333332,11.041666666666666,48.75,20.625,80,15C111.25,9.375,126.66666666666666,-20.75,160,-17C193.33333333333334,-13.25,206.66666666666666,30.708333333333332,240,33C273.3333333333333,35.291666666666664,286.6666666666667,-7.041666666666667,320,-6C353.3333333333333,-4.958333333333333,366.6666666666667,37.375,400,38C433.3333333333333,38.625,446.6666666666667,-2.166666666666667,480,-3C513.3333333333334,-3.833333333333333,526.6666666666666,35.666666666666664,560,34C593.3333333333334,32.333333333333336,606.6666666666666,-14.958333333333332,640,-11C673.3333333333334,-7.041666666666667,686.6666666666666,49.458333333333336,720,53C753.3333333333334,56.541666666666664,783.3333333333334,15.791666666666666,800,6" transform="matrix(1,0,0,1,0,1548)"></path><path d="M10,10C24.583333333333332,11.041666666666666,48.75,20.625,80,15C111.25,9.375,126.66666666666666,-20.75,160,-17C193.33333333333334,-13.25,206.66666666666666,30.708333333333332,240,33C273.3333333333333,35.291666666666664,286.6666666666667,-7.041666666666667,320,-6C353.3333333333333,-4.958333333333333,366.6666666666667,37.375,400,38C433.3333333333333,38.625,446.6666666666667,-2.166666666666667,480,-3C513.3333333333334,-3.833333333333333,526.6666666666666,35.666666666666664,560,34C593.3333333333334,32.333333333333336,606.6666666666666,-14.958333333333332,640,-11C673.3333333333334,-7.041666666666667,686.6666666666666,49.458333333333336,720,53C753.3333333333334,56.541666666666664,783.3333333333334,15.791666666666666,800,6" transform="matrix(1,0,0,1,0,1462)"></path><path d="M10,10C24.583333333333332,11.041666666666666,48.75,20.625,80,15C111.25,9.375,126.66666666666666,-20.75,160,-17C193.33333333333334,-13.25,206.66666666666666,30.708333333333332,240,33C273.3333333333333,35.291666666666664,286.6666666666667,-7.041666666666667,320,-6C353.3333333333333,-4.958333333333333,366.6666666666667,37.375,400,38C433.3333333333333,38.625,446.6666666666667,-2.166666666666667,480,-3C513.3333333333334,-3.833333333333333,526.6666666666666,35.666666666666664,560,34C593.3333333333334,32.333333333333336,606.6666666666666,-14.958333333333332,640,-11C673.3333333333334,-7.041666666666667,686.6666666666666,49.458333333333336,720,53C753.3333333333334,56.541666666666664,783.3333333333334,15.791666666666666,800,6" transform="matrix(1,0,0,1,0,1376)"></path><path d="M10,10C24.583333333333332,11.041666666666666,48.75,20.625,80,15C111.25,9.375,126.66666666666666,-20.75,160,-17C193.33333333333334,-13.25,206.66666666666666,30.708333333333332,240,33C273.3333333333333,35.291666666666664,286.6666666666667,-7.041666666666667,320,-6C353.3333333333333,-4.958333333333333,366.6666666666667,37.375,400,38C433.3333333333333,38.625,446.6666666666667,-2.166666666666667,480,-3C513.3333333333334,-3.833333333333333,526.6666666666666,35.666666666666664,560,34C593.3333333333334,32.333333333333336,606.6666666666666,-14.958333333333332,640,-11C673.3333333333334,-7.041666666666667,686.6666666666666,49.458333333333336,720,53C753.3333333333334,56.541666666666664,783.3333333333334,15.791666666666666,800,6" transform="matrix(1,0,0,1,0,1290)"></path><path d="M10,10C24.583333333333332,11.041666666666666,48.75,20.625,80,15C111.25,9.375,126.66666666666666,-20.75,160,-17C193.33333333333334,-13.25,206.66666666666666,30.708333333333332,240,33C273.3333333333333,35.291666666666664,286.6666666666667,-7.041666666666667,320,-6C353.3333333333333,-4.958333333333333,366.6666666666667,37.375,400,38C433.3333333333333,38.625,446.6666666666667,-2.166666666666667,480,-3C513.3333333333334,-3.833333333333333,526.6666666666666,35.666666666666664,560,34C593.3333333333334,32.333333333333336,606.6666666666666,-14.958333333333332,640,-11C673.3333333333334,-7.041666666666667,686.6666666666666,49.458333333333336,720,53C753.3333333333334,56.541666666666664,783.3333333333334,15.791666666666666,800,6" transform="matrix(1,0,0,1,0,1204)"></path><path d="M10,10C24.583333333333332,11.041666666666666,48.75,20.625,80,15C111.25,9.375,126.66666666666666,-20.75,160,-17C193.33333333333334,-13.25,206.66666666666666,30.708333333333332,240,33C273.3333333333333,35.291666666666664,286.6666666666667,-7.041666666666667,320,-6C353.3333333333333,-4.958333333333333,366.6666666666667,37.375,400,38C433.3333333333333,38.625,446.6666666666667,-2.166666666666667,480,-3C513.3333333333334,-3.833333333333333,526.6666666666666,35.666666666666664,560,34C593.3333333333334,32.333333333333336,606.6666666666666,-14.958333333333332,640,-11C673.3333333333334,-7.041666666666667,686.6666666666666,49.458333333333336,720,53C753.3333333333334,56.541666666666664,783.3333333333334,15.791666666666666,800,6" transform="matrix(1,0,0,1,0,1118)"></path><path d="M10,10C24.583333333333332,11.041666666666666,48.75,20.625,80,15C111.25,9.375,126.66666666666666,-20.75,160,-17C193.33333333333334,-13.25,206.66666666666666,30.708333333333332,240,33C273.3333333333333,35.291666666666664,286.6666666666667,-7.041666666666667,320,-6C353.3333333333333,-4.958333333333333,366.6666666666667,37.375,400,38C433.3333333333333,38.625,446.6666666666667,-2.166666666666667,480,-3C513.3333333333334,-3.833333333333333,526.6666666666666,35.666666666666664,560,34C593.3333333333334,32.333333333333336,606.6666666666666,-14.958333333333332,640,-11C673.3333333333334,-7.041666666666667,686.6666666666666,49.458333333333336,720,53C753.3333333333334,56.541666666666664,783.3333333333334,15.791666666666666,800,6" transform="matrix(1,0,0,1,0,1032)"></path><path d="M10,10C24.583333333333332,11.041666666666666,48.75,20.625,80,15C111.25,9.375,126.66666666666666,-20.75,160,-17C193.33333333333334,-13.25,206.66666666666666,30.708333333333332,240,33C273.3333333333333,35.291666666666664,286.6666666666667,-7.041666666666667,320,-6C353.3333333333333,-4.958333333333333,366.6666666666667,37.375,400,38C433.3333333333333,38.625,446.6666666666667,-2.166666666666667,480,-3C513.3333333333334,-3.833333333333333,526.6666666666666,35.666666666666664,560,34C593.3333333333334,32.333333333333336,606.6666666666666,-14.958333333333332,640,-11C673.3333333333334,-7.041666666666667,686.6666666666666,49.458333333333336,720,53C753.3333333333334,56.541666666666664,783.3333333333334,15.791666666666666,800,6" transform="matrix(1,0,0,1,0,946)"></path><path d="M10,10C24.583333333333332,11.041666666666666,48.75,20.625,80,15C111.25,9.375,126.66666666666666,-20.75,160,-17C193.33333333333334,-13.25,206.66666666666666,30.708333333333332,240,33C273.3333333333333,35.291666666666664,286.6666666666667,-7.041666666666667,320,-6C353.3333333333333,-4.958333333333333,366.6666666666667,37.375,400,38C433.3333333333333,38.625,446.6666666666667,-2.166666666666667,480,-3C513.3333333333334,-3.833333333333333,526.6666666666666,35.666666666666664,560,34C593.3333333333334,32.333333333333336,606.6666666666666,-14.958333333333332,640,-11C673.3333333333334,-7.041666666666667,686.6666666666666,49.458333333333336,720,53C753.3333333333334,56.541666666666664,783.3333333333334,15.791666666666666,800,6" transform="matrix(1,0,0,1,0,860)"></path><path d="M10,10C24.583333333333332,11.041666666666666,48.75,20.625,80,15C111.25,9.375,126.66666666666666,-20.75,160,-17C193.33333333333334,-13.25,206.66666666666666,30.708333333333332,240,33C273.3333333333333,35.291666666666664,286.6666666666667,-7.041666666666667,320,-6C353.3333333333333,-4.958333333333333,366.6666666666667,37.375,400,38C433.3333333333333,38.625,446.6666666666667,-2.166666666666667,480,-3C513.3333333333334,-3.833333333333333,526.6666666666666,35.666666666666664,560,34C593.3333333333334,32.333333333333336,606.6666666666666,-14.958333333333332,640,-11C673.3333333333334,-7.041666666666667,686.6666666666666,49.458333333333336,720,53C753.3333333333334,56.541666666666664,783.3333333333334,15.791666666666666,800,6" transform="matrix(1,0,0,1,0,774)"></path><path d="M10,10C24.583333333333332,11.041666666666666,48.75,20.625,80,15C111.25,9.375,126.66666666666666,-20.75,160,-17C193.33333333333334,-13.25,206.66666666666666,30.708333333333332,240,33C273.3333333333333,35.291666666666664,286.6666666666667,-7.041666666666667,320,-6C353.3333333333333,-4.958333333333333,366.6666666666667,37.375,400,38C433.3333333333333,38.625,446.6666666666667,-2.166666666666667,480,-3C513.3333333333334,-3.833333333333333,526.6666666666666,35.666666666666664,560,34C593.3333333333334,32.333333333333336,606.6666666666666,-14.958333333333332,640,-11C673.3333333333334,-7.041666666666667,686.6666666666666,49.458333333333336,720,53C753.3333333333334,56.541666666666664,783.3333333333334,15.791666666666666,800,6" transform="matrix(1,0,0,1,0,688)"></path><path d="M10,10C24.583333333333332,11.041666666666666,48.75,20.625,80,15C111.25,9.375,126.66666666666666,-20.75,160,-17C193.33333333333334,-13.25,206.66666666666666,30.708333333333332,240,33C273.3333333333333,35.291666666666664,286.6666666666667,-7.041666666666667,320,-6C353.3333333333333,-4.958333333333333,366.6666666666667,37.375,400,38C433.3333333333333,38.625,446.6666666666667,-2.166666666666667,480,-3C513.3333333333334,-3.833333333333333,526.6666666666666,35.666666666666664,560,34C593.3333333333334,32.333333333333336,606.6666666666666,-14.958333333333332,640,-11C673.3333333333334,-7.041666666666667,686.6666666666666,49.458333333333336,720,53C753.3333333333334,56.541666666666664,783.3333333333334,15.791666666666666,800,6" transform="matrix(1,0,0,1,0,602)"></path><path d="M10,10C24.583333333333332,11.041666666666666,48.75,20.625,80,15C111.25,9.375,126.66666666666666,-20.75,160,-17C193.33333333333334,-13.25,206.66666666666666,30.708333333333332,240,33C273.3333333333333,35.291666666666664,286.6666666666667,-7.041666666666667,320,-6C353.3333333333333,-4.958333333333333,366.6666666666667,37.375,400,38C433.3333333333333,38.625,446.6666666666667,-2.166666666666667,480,-3C513.3333333333334,-3.833333333333333,526.6666666666666,35.666666666666664,560,34C593.3333333333334,32.333333333333336,606.6666666666666,-14.958333333333332,640,-11C673.3333333333334,-7.041666666666667,686.6666666666666,49.458333333333336,720,53C753.3333333333334,56.541666666666664,783.3333333333334,15.791666666666666,800,6" transform="matrix(1,0,0,1,0,516)"></path><path d="M10,10C24.583333333333332,11.041666666666666,48.75,20.625,80,15C111.25,9.375,126.66666666666666,-20.75,160,-17C193.33333333333334,-13.25,206.66666666666666,30.708333333333332,240,33C273.3333333333333,35.291666666666664,286.6666666666667,-7.041666666666667,320,-6C353.3333333333333,-4.958333333333333,366.6666666666667,37.375,400,38C433.3333333333333,38.625,446.6666666666667,-2.166666666666667,480,-3C513.3333333333334,-3.833333333333333,526.6666666666666,35.666666666666664,560,34C593.3333333333334,32.333333333333336,606.6666666666666,-14.958333333333332,640,-11C673.3333333333334,-7.041666666666667,686.6666666666666,49.458333333333336,720,53C753.3333333333334,56.541666666666664,783.3333333333334,15.791666666666666,800,6" transform="matrix(1,0,0,1,0,430)"></path><path d="M10,10C24.583333333333332,11.041666666666666,48.75,20.625,80,15C111.25,9.375,126.66666666666666,-20.75,160,-17C193.33333333333334,-13.25,206.66666666666666,30.708333333333332,240,33C273.3333333333333,35.291666666666664,286.6666666666667,-7.041666666666667,320,-6C353.3333333333333,-4.958333333333333,366.6666666666667,37.375,400,38C433.3333333333333,38.625,446.6666666666667,-2.166666666666667,480,-3C513.3333333333334,-3.833333333333333,526.6666666666666,35.666666666666664,560,34C593.3333333333334,32.333333333333336,606.6666666666666,-14.958333333333332,640,-11C673.3333333333334,-7.041666666666667,686.6666666666666,49.458333333333336,720,53C753.3333333333334,56.541666666666664,783.3333333333334,15.791666666666666,800,6" transform="matrix(1,0,0,1,0,344)"></path><path d="M10,10C24.583333333333332,11.041666666666666,48.75,20.625,80,15C111.25,9.375,126.66666666666666,-20.75,160,-17C193.33333333333334,-13.25,206.66666666666666,30.708333333333332,240,33C273.3333333333333,35.291666666666664,286.6666666666667,-7.041666666666667,320,-6C353.3333333333333,-4.958333333333333,366.6666666666667,37.375,400,38C433.3333333333333,38.625,446.6666666666667,-2.166666666666667,480,-3C513.3333333333334,-3.833333333333333,526.6666666666666,35.666666666666664,560,34C593.3333333333334,32.333333333333336,606.6666666666666,-14.958333333333332,640,-11C673.3333333333334,-7.041666666666667,686.6666666666666,49.458333333333336,720,53C753.3333333333334,56.541666666666664,783.3333333333334,15.791666666666666,800,6" transform="matrix(1,0,0,1,0,258)"></path><path d="M10,10C24.583333333333332,11.041666666666666,48.75,20.625,80,15C111.25,9.375,126.66666666666666,-20.75,160,-17C193.33333333333334,-13.25,206.66666666666666,30.708333333333332,240,33C273.3333333333333,35.291666666666664,286.6666666666667,-7.041666666666667,320,-6C353.3333333333333,-4.958333333333333,366.6666666666667,37.375,400,38C433.3333333333333,38.625,446.6666666666667,-2.166666666666667,480,-3C513.3333333333334,-3.833333333333333,526.6666666666666,35.666666666666664,560,34C593.3333333333334,32.333333333333336,606.6666666666666,-14.958333333333332,640,-11C673.3333333333334,-7.041666666666667,686.6666666666666,49.458333333333336,720,53C753.3333333333334,56.541666666666664,783.3333333333334,15.791666666666666,800,6" transform="matrix(1,0,0,1,0,172)"></path><path d="M10,10C24.583333333333332,11.041666666666666,48.75,20.625,80,15C111.25,9.375,126.66666666666666,-20.75,160,-17C193.33333333333334,-13.25,206.66666666666666,30.708333333333332,240,33C273.3333333333333,35.291666666666664,286.6666666666667,-7.041666666666667,320,-6C353.3333333333333,-4.958333333333333,366.6666666666667,37.375,400,38C433.3333333333333,38.625,446.6666666666667,-2.166666666666667,480,-3C513.3333333333334,-3.833333333333333,526.6666666666666,35.666666666666664,560,34C593.3333333333334,32.333333333333336,606.6666666666666,-14.958333333333332,640,-11C673.3333333333334,-7.041666666666667,686.6666666666666,49.458333333333336,720,53C753.3333333333334,56.541666666666664,783.3333333333334,15.791666666666666,800,6" transform="matrix(1,0,0,1,0,86)"></path></g></svg>